<svg width="16" height="16" viewBox="0 0 16 16" fill="none" xmlns="http://www.w3.org/2000/svg">
<path d="M12.6667 1.33337H4.17998C3.71211 1.33353 3.2591 1.49771 2.89977 1.79736C2.54044 2.097 2.29754 2.51314 2.21332 2.97337L1.36665 7.64004C1.3139 7.92833 1.32515 8.2247 1.39961 8.50816C1.47407 8.79162 1.60992 9.05526 1.79754 9.28041C1.98517 9.50556 2.21998 9.68672 2.48537 9.81108C2.75076 9.93543 3.04024 9.99994 3.33332 10H6.37332L5.99998 10.9534C5.8447 11.3708 5.79298 11.8196 5.84928 12.2614C5.90557 12.7032 6.06819 13.1248 6.32319 13.4899C6.5782 13.855 6.91797 14.1528 7.31336 14.3578C7.70875 14.5628 8.14796 14.6688 8.59332 14.6667C8.72156 14.6664 8.847 14.6292 8.9546 14.5594C9.06221 14.4897 9.14741 14.3903 9.19999 14.2734L11.1 10H12.6667C13.1971 10 13.7058 9.78933 14.0809 9.41426C14.4559 9.03918 14.6667 8.53047 14.6667 8.00004V3.33337C14.6667 2.80294 14.4559 2.29423 14.0809 1.91916C13.7058 1.54409 13.1971 1.33337 12.6667 1.33337ZM9.99998 9.19337L8.18665 13.2734C8.00111 13.2172 7.82903 13.1237 7.68101 12.9985C7.53299 12.8734 7.41216 12.7192 7.32597 12.5456C7.23978 12.372 7.19006 12.1825 7.17985 11.989C7.16965 11.7954 7.19919 11.6018 7.26665 11.42L7.61999 10.4667C7.69527 10.2652 7.72069 10.0485 7.69407 9.83502C7.66745 9.62156 7.58957 9.41772 7.4671 9.24088C7.34462 9.06404 7.18118 8.91946 6.99071 8.81948C6.80025 8.7195 6.58843 8.66708 6.37332 8.66671H3.33332C3.23538 8.66687 3.13861 8.64544 3.04988 8.60396C2.96116 8.56248 2.88267 8.50196 2.81998 8.42671C2.75576 8.35249 2.70872 8.26501 2.68221 8.17051C2.65571 8.07601 2.65039 7.97683 2.66665 7.88004L3.51332 3.21337C3.54172 3.05807 3.62431 2.91788 3.74639 2.81777C3.86848 2.71767 4.02213 2.66413 4.17998 2.66671H9.99998V9.19337ZM13.3333 8.00004C13.3333 8.17685 13.2631 8.34642 13.1381 8.47145C13.013 8.59647 12.8435 8.66671 12.6667 8.66671H11.3333V2.66671H12.6667C12.8435 2.66671 13.013 2.73695 13.1381 2.86197C13.2631 2.98699 13.3333 3.15656 13.3333 3.33337V8.00004Z" fill="#FF4651"/>
</svg>
